<?xml version="1.0" encoding="UTF-8" standalone="no"?>
<!DOCTYPE svg PUBLIC "-//W3C//DTD SVG 1.1//EN"
 "http://www.w3.org/Graphics/SVG/1.1/DTD/svg11.dtd">
<!-- Generated by graphviz version 13.0.0 (20250608.1624)
 -->
<!-- Pages: 1 -->
<svg width="712pt" height="1196pt"
 viewBox="0.00 0.00 712.00 1196.00" xmlns="http://www.w3.org/2000/svg" xmlns:xlink="http://www.w3.org/1999/xlink">
<g id="graph0" class="graph" transform="scale(1 1) rotate(0) translate(4 1192)">
<polygon fill="white" stroke="none" points="-4,4 -4,-1192 708.25,-1192 708.25,4 -4,4"/>
<!-- numeric keypad -->
<g id="node1" class="node">
<title>numeric keypad</title>
<path fill="lightblue" stroke="black" d="M692.25,-1188C692.25,-1188 612.5,-1188 612.5,-1188 606.5,-1188 600.5,-1182 600.5,-1176 600.5,-1176 600.5,-1164 600.5,-1164 600.5,-1158 606.5,-1152 612.5,-1152 612.5,-1152 692.25,-1152 692.25,-1152 698.25,-1152 704.25,-1158 704.25,-1164 704.25,-1164 704.25,-1176 704.25,-1176 704.25,-1182 698.25,-1188 692.25,-1188"/>
<text xml:space="preserve" text-anchor="middle" x="652.38" y="-1164.95" font-family="Times,serif" font-size="14.00">numeric keypad</text>
</g>
<!-- numeric keypadaccepts -->
<g id="node24" class="node">
<title>numeric keypadaccepts</title>
<text xml:space="preserve" text-anchor="middle" x="612.38" y="-1092.95" font-family="Times,serif" font-size="14.00">accepts</text>
</g>
<!-- numeric keypad&#45;&gt;numeric keypadaccepts -->
<g id="edge5" class="edge">
<title>numeric keypad&#45;&gt;numeric keypadaccepts</title>
<path fill="none" stroke="black" d="M642.49,-1151.7C637.96,-1143.78 632.51,-1134.23 627.48,-1125.44"/>
<polygon fill="black" stroke="black" points="630.62,-1123.88 622.62,-1116.94 624.55,-1127.36 630.62,-1123.88"/>
</g>
<!-- intruder -->
<g id="node2" class="node">
<title>intruder</title>
<path fill="lightblue" stroke="black" d="M214.75,-612C214.75,-612 180,-612 180,-612 174,-612 168,-606 168,-600 168,-600 168,-588 168,-588 168,-582 174,-576 180,-576 180,-576 214.75,-576 214.75,-576 220.75,-576 226.75,-582 226.75,-588 226.75,-588 226.75,-600 226.75,-600 226.75,-606 220.75,-612 214.75,-612"/>
<text xml:space="preserve" text-anchor="middle" x="197.38" y="-588.95" font-family="Times,serif" font-size="14.00">intruder</text>
</g>
<!-- intrudertriggers -->
<g id="node40" class="node">
<title>intrudertriggers</title>
<text xml:space="preserve" text-anchor="middle" x="197.38" y="-516.95" font-family="Times,serif" font-size="14.00">triggers</text>
</g>
<!-- intruder&#45;&gt;intrudertriggers -->
<g id="edge2" class="edge">
<title>intruder&#45;&gt;intrudertriggers</title>
<path fill="none" stroke="black" d="M197.38,-575.7C197.38,-568.21 197.38,-559.26 197.38,-550.88"/>
<polygon fill="black" stroke="black" points="200.88,-551.14 197.38,-541.14 193.88,-551.14 200.88,-551.14"/>
</g>
<!-- 30 minutes -->
<g id="node3" class="node">
<title>30 minutes</title>
<path fill="lightblue" stroke="black" d="M64.75,-180C64.75,-180 12,-180 12,-180 6,-180 0,-174 0,-168 0,-168 0,-156 0,-156 0,-150 6,-144 12,-144 12,-144 64.75,-144 64.75,-144 70.75,-144 76.75,-150 76.75,-156 76.75,-156 76.75,-168 76.75,-168 76.75,-174 70.75,-180 64.75,-180"/>
<text xml:space="preserve" text-anchor="middle" x="38.38" y="-156.95" font-family="Times,serif" font-size="14.00">30 minutes</text>
</g>
<!-- user -->
<g id="node4" class="node">
<title>user</title>
<path fill="lightblue" stroke="black" d="M554.38,-1188C554.38,-1188 524.38,-1188 524.38,-1188 518.38,-1188 512.38,-1182 512.38,-1176 512.38,-1176 512.38,-1164 512.38,-1164 512.38,-1158 518.38,-1152 524.38,-1152 524.38,-1152 554.38,-1152 554.38,-1152 560.38,-1152 566.38,-1158 566.38,-1164 566.38,-1164 566.38,-1176 566.38,-1176 566.38,-1182 560.38,-1188 554.38,-1188"/>
<text xml:space="preserve" text-anchor="middle" x="539.38" y="-1164.95" font-family="Times,serif" font-size="14.00">user</text>
</g>
<!-- userenters -->
<g id="node26" class="node">
<title>userenters</title>
<text xml:space="preserve" text-anchor="middle" x="539.38" y="-1092.95" font-family="Times,serif" font-size="14.00">enters</text>
</g>
<!-- user&#45;&gt;userenters -->
<g id="edge39" class="edge">
<title>user&#45;&gt;userenters</title>
<path fill="none" stroke="black" d="M539.38,-1151.7C539.38,-1144.21 539.38,-1135.26 539.38,-1126.88"/>
<polygon fill="black" stroke="black" points="542.88,-1127.14 539.38,-1117.14 535.88,-1127.14 542.88,-1127.14"/>
</g>
<!-- 15 minutes -->
<g id="node5" class="node">
<title>15 minutes</title>
<path fill="lightblue" stroke="black" d="M213.75,-36C213.75,-36 161,-36 161,-36 155,-36 149,-30 149,-24 149,-24 149,-12 149,-12 149,-6 155,0 161,0 161,0 213.75,0 213.75,0 219.75,0 225.75,-6 225.75,-12 225.75,-12 225.75,-24 225.75,-24 225.75,-30 219.75,-36 213.75,-36"/>
<text xml:space="preserve" text-anchor="middle" x="187.38" y="-12.95" font-family="Times,serif" font-size="14.00">15 minutes</text>
</g>
<!-- siren -->
<g id="node6" class="node">
<title>siren</title>
<path fill="lightblue" stroke="black" d="M267.38,-684C267.38,-684 237.38,-684 237.38,-684 231.38,-684 225.38,-678 225.38,-672 225.38,-672 225.38,-660 225.38,-660 225.38,-654 231.38,-648 237.38,-648 237.38,-648 267.38,-648 267.38,-648 273.38,-648 279.38,-654 279.38,-660 279.38,-660 279.38,-672 279.38,-672 279.38,-678 273.38,-684 267.38,-684"/>
<text xml:space="preserve" text-anchor="middle" x="252.38" y="-660.95" font-family="Times,serif" font-size="14.00">siren</text>
</g>
<!-- sirenhas -->
<g id="node31" class="node">
<title>sirenhas</title>
<text xml:space="preserve" text-anchor="middle" x="234.38" y="-372.95" font-family="Times,serif" font-size="14.00">has</text>
</g>
<!-- siren&#45;&gt;sirenhas -->
<g id="edge1" class="edge">
<title>siren&#45;&gt;sirenhas</title>
<path fill="none" stroke="black" d="M251.28,-647.54C248.26,-599.65 239.84,-465.87 236.15,-407.2"/>
<polygon fill="black" stroke="black" points="239.65,-407.14 235.53,-397.38 232.67,-407.58 239.65,-407.14"/>
</g>
<!-- intruder sensor -->
<g id="node7" class="node">
<title>intruder sensor</title>
<path fill="lightblue" stroke="black" d="M213.88,-468C213.88,-468 140.88,-468 140.88,-468 134.88,-468 128.88,-462 128.88,-456 128.88,-456 128.88,-444 128.88,-444 128.88,-438 134.88,-432 140.88,-432 140.88,-432 213.88,-432 213.88,-432 219.88,-432 225.88,-438 225.88,-444 225.88,-444 225.88,-456 225.88,-456 225.88,-462 219.88,-468 213.88,-468"/>
<text xml:space="preserve" text-anchor="middle" x="177.38" y="-444.95" font-family="Times,serif" font-size="14.00">intruder sensor</text>
</g>
<!-- intruder sensortriggers -->
<g id="node21" class="node">
<title>intruder sensortriggers</title>
<text xml:space="preserve" text-anchor="middle" x="177.38" y="-300.95" font-family="Times,serif" font-size="14.00">triggers</text>
</g>
<!-- intruder sensor&#45;&gt;intruder sensortriggers -->
<g id="edge24" class="edge">
<title>intruder sensor&#45;&gt;intruder sensortriggers</title>
<path fill="none" stroke="black" d="M177.38,-431.59C177.38,-407.48 177.38,-363.67 177.38,-334.95"/>
<polygon fill="black" stroke="black" points="180.88,-335.19 177.38,-325.19 173.88,-335.19 180.88,-335.19"/>
</g>
<!-- sensors -->
<g id="node8" class="node">
<title>sensors</title>
<path fill="lightblue" stroke="black" d="M138.25,-612C138.25,-612 106.5,-612 106.5,-612 100.5,-612 94.5,-606 94.5,-600 94.5,-600 94.5,-588 94.5,-588 94.5,-582 100.5,-576 106.5,-576 106.5,-576 138.25,-576 138.25,-576 144.25,-576 150.25,-582 150.25,-588 150.25,-588 150.25,-600 150.25,-600 150.25,-606 144.25,-612 138.25,-612"/>
<text xml:space="preserve" text-anchor="middle" x="122.38" y="-588.95" font-family="Times,serif" font-size="14.00">sensors</text>
</g>
<!-- sensorsof type -->
<g id="node29" class="node">
<title>sensorsof type</title>
<text xml:space="preserve" text-anchor="middle" x="123.38" y="-516.95" font-family="Times,serif" font-size="14.00">of type</text>
</g>
<!-- sensors&#45;&gt;sensorsof type -->
<g id="edge12" class="edge">
<title>sensors&#45;&gt;sensorsof type</title>
<path fill="none" stroke="black" d="M122.62,-575.7C122.73,-568.21 122.86,-559.26 122.98,-550.88"/>
<polygon fill="black" stroke="black" points="126.47,-551.18 123.12,-541.14 119.47,-551.08 126.47,-551.18"/>
</g>
<!-- control panel -->
<g id="node9" class="node">
<title>control panel</title>
<path fill="lightblue" stroke="black" d="M495,-756C495,-756 431.75,-756 431.75,-756 425.75,-756 419.75,-750 419.75,-744 419.75,-744 419.75,-732 419.75,-732 419.75,-726 425.75,-720 431.75,-720 431.75,-720 495,-720 495,-720 501,-720 507,-726 507,-732 507,-732 507,-744 507,-744 507,-750 501,-756 495,-756"/>
<text xml:space="preserve" text-anchor="middle" x="463.38" y="-732.95" font-family="Times,serif" font-size="14.00">control panel</text>
</g>
<!-- control panelhas -->
<g id="node37" class="node">
<title>control panelhas</title>
<text xml:space="preserve" text-anchor="middle" x="463.38" y="-660.95" font-family="Times,serif" font-size="14.00">has</text>
</g>
<!-- control panel&#45;&gt;control panelhas -->
<g id="edge20" class="edge">
<title>control panel&#45;&gt;control panelhas</title>
<path fill="none" stroke="black" d="M463.38,-719.7C463.38,-712.21 463.38,-703.26 463.38,-694.88"/>
<polygon fill="black" stroke="black" points="466.88,-695.14 463.38,-685.14 459.88,-695.14 466.88,-695.14"/>
</g>
<!-- PIN -->
<g id="node10" class="node">
<title>PIN</title>
<path fill="lightblue" stroke="black" d="M588.38,-1044C588.38,-1044 558.38,-1044 558.38,-1044 552.38,-1044 546.38,-1038 546.38,-1032 546.38,-1032 546.38,-1020 546.38,-1020 546.38,-1014 552.38,-1008 558.38,-1008 558.38,-1008 588.38,-1008 588.38,-1008 594.38,-1008 600.38,-1014 600.38,-1020 600.38,-1020 600.38,-1032 600.38,-1032 600.38,-1038 594.38,-1044 588.38,-1044"/>
<text xml:space="preserve" text-anchor="middle" x="573.38" y="-1020.95" font-family="Times,serif" font-size="14.00">PIN</text>
</g>
<!-- PINenables -->
<g id="node20" class="node">
<title>PINenables</title>
<text xml:space="preserve" text-anchor="middle" x="490.38" y="-948.95" font-family="Times,serif" font-size="14.00">enables</text>
</g>
<!-- PIN&#45;&gt;PINenables -->
<g id="edge26" class="edge">
<title>PIN&#45;&gt;PINenables</title>
<path fill="none" stroke="black" d="M552.86,-1007.7C542.63,-999.07 530.1,-988.5 518.95,-979.1"/>
<polygon fill="black" stroke="black" points="521.43,-976.61 511.53,-972.84 516.91,-981.96 521.43,-976.61"/>
</g>
<!-- zones -->
<g id="node11" class="node">
<title>zones</title>
<path fill="lightblue" stroke="black" d="M183.38,-756C183.38,-756 153.38,-756 153.38,-756 147.38,-756 141.38,-750 141.38,-744 141.38,-744 141.38,-732 141.38,-732 141.38,-726 147.38,-720 153.38,-720 153.38,-720 183.38,-720 183.38,-720 189.38,-720 195.38,-726 195.38,-732 195.38,-732 195.38,-744 195.38,-744 195.38,-750 189.38,-756 183.38,-756"/>
<text xml:space="preserve" text-anchor="middle" x="168.38" y="-732.95" font-family="Times,serif" font-size="14.00">zones</text>
</g>
<!-- zonescontain -->
<g id="node35" class="node">
<title>zonescontain</title>
<text xml:space="preserve" text-anchor="middle" x="145.38" y="-660.95" font-family="Times,serif" font-size="14.00">contain</text>
</g>
<!-- zones&#45;&gt;zonescontain -->
<g id="edge36" class="edge">
<title>zones&#45;&gt;zonescontain</title>
<path fill="none" stroke="black" d="M162.69,-719.7C160.17,-712.04 157.15,-702.85 154.35,-694.3"/>
<polygon fill="black" stroke="black" points="157.76,-693.47 151.31,-685.06 151.11,-695.65 157.76,-693.47"/>
</g>
<!-- intruder sound -->
<g id="node12" class="node">
<title>intruder sound</title>
<path fill="lightblue" stroke="black" d="M222.75,-180C222.75,-180 152,-180 152,-180 146,-180 140,-174 140,-168 140,-168 140,-156 140,-156 140,-150 146,-144 152,-144 152,-144 222.75,-144 222.75,-144 228.75,-144 234.75,-150 234.75,-156 234.75,-156 234.75,-168 234.75,-168 234.75,-174 228.75,-180 222.75,-180"/>
<text xml:space="preserve" text-anchor="middle" x="187.38" y="-156.95" font-family="Times,serif" font-size="14.00">intruder sound</text>
</g>
<!-- intruder soundsounds for -->
<g id="node27" class="node">
<title>intruder soundsounds for</title>
<text xml:space="preserve" text-anchor="middle" x="187.38" y="-84.95" font-family="Times,serif" font-size="14.00">sounds for</text>
</g>
<!-- intruder sound&#45;&gt;intruder soundsounds for -->
<g id="edge19" class="edge">
<title>intruder sound&#45;&gt;intruder soundsounds for</title>
<path fill="none" stroke="black" d="M187.38,-143.7C187.38,-136.21 187.38,-127.26 187.38,-118.88"/>
<polygon fill="black" stroke="black" points="190.88,-119.14 187.38,-109.14 183.88,-119.14 190.88,-119.14"/>
</g>
<!-- disarm button -->
<g id="node13" class="node">
<title>disarm button</title>
<path fill="lightblue" stroke="black" d="M415.25,-612C415.25,-612 347.5,-612 347.5,-612 341.5,-612 335.5,-606 335.5,-600 335.5,-600 335.5,-588 335.5,-588 335.5,-582 341.5,-576 347.5,-576 347.5,-576 415.25,-576 415.25,-576 421.25,-576 427.25,-582 427.25,-588 427.25,-588 427.25,-600 427.25,-600 427.25,-606 421.25,-612 415.25,-612"/>
<text xml:space="preserve" text-anchor="middle" x="381.38" y="-588.95" font-family="Times,serif" font-size="14.00">disarm button</text>
</g>
<!-- disarm buttondisarm -->
<g id="node23" class="node">
<title>disarm buttondisarm</title>
<text xml:space="preserve" text-anchor="middle" x="315.38" y="-516.95" font-family="Times,serif" font-size="14.00">disarm</text>
</g>
<!-- disarm button&#45;&gt;disarm buttondisarm -->
<g id="edge17" class="edge">
<title>disarm button&#45;&gt;disarm buttondisarm</title>
<path fill="none" stroke="black" d="M365.06,-575.7C357.11,-567.27 347.41,-556.97 338.69,-547.73"/>
<polygon fill="black" stroke="black" points="341.49,-545.6 332.09,-540.72 336.4,-550.4 341.49,-545.6"/>
</g>
<!-- disarm buttonturns off -->
<g id="node30" class="node">
<title>disarm buttonturns off</title>
<text xml:space="preserve" text-anchor="middle" x="394.38" y="-516.95" font-family="Times,serif" font-size="14.00">turns off</text>
</g>
<!-- disarm button&#45;&gt;disarm buttonturns off -->
<g id="edge33" class="edge">
<title>disarm button&#45;&gt;disarm buttonturns off</title>
<path fill="none" stroke="black" d="M384.59,-575.7C385.98,-568.21 387.64,-559.26 389.2,-550.88"/>
<polygon fill="black" stroke="black" points="392.63,-551.58 391.01,-541.11 385.74,-550.3 392.63,-551.58"/>
</g>
<!-- burglar alarm -->
<g id="node14" class="node">
<title>burglar alarm</title>
<path fill="lightblue" stroke="black" d="M496.5,-900C496.5,-900 430.25,-900 430.25,-900 424.25,-900 418.25,-894 418.25,-888 418.25,-888 418.25,-876 418.25,-876 418.25,-870 424.25,-864 430.25,-864 430.25,-864 496.5,-864 496.5,-864 502.5,-864 508.5,-870 508.5,-876 508.5,-876 508.5,-888 508.5,-888 508.5,-894 502.5,-900 496.5,-900"/>
<text xml:space="preserve" text-anchor="middle" x="463.38" y="-876.95" font-family="Times,serif" font-size="14.00">burglar alarm</text>
</g>
<!-- burglar alarmvalidates -->
<g id="node22" class="node">
<title>burglar alarmvalidates</title>
<text xml:space="preserve" text-anchor="middle" x="608.38" y="-804.95" font-family="Times,serif" font-size="14.00">validates</text>
</g>
<!-- burglar alarm&#45;&gt;burglar alarmvalidates -->
<g id="edge13" class="edge">
<title>burglar alarm&#45;&gt;burglar alarmvalidates</title>
<path fill="none" stroke="black" d="M499.59,-863.52C519.83,-853.75 545.14,-841.53 566.26,-831.33"/>
<polygon fill="black" stroke="black" points="567.71,-834.52 575.2,-827.02 564.67,-828.21 567.71,-834.52"/>
</g>
<!-- burglar alarmmonitors -->
<g id="node25" class="node">
<title>burglar alarmmonitors</title>
<text xml:space="preserve" text-anchor="middle" x="188.38" y="-804.95" font-family="Times,serif" font-size="14.00">monitors</text>
</g>
<!-- burglar alarm&#45;&gt;burglar alarmmonitors -->
<g id="edge27" class="edge">
<title>burglar alarm&#45;&gt;burglar alarmmonitors</title>
<path fill="none" stroke="black" d="M417.92,-870.53C373.91,-860.25 305.37,-843.84 246.38,-828 241.51,-826.69 236.43,-825.28 231.39,-823.85"/>
<polygon fill="black" stroke="black" points="232.55,-820.54 221.97,-821.12 230.6,-827.26 232.55,-820.54"/>
</g>
<!-- burglar alarmoperated by -->
<g id="node33" class="node">
<title>burglar alarmoperated by</title>
<text xml:space="preserve" text-anchor="middle" x="463.38" y="-804.95" font-family="Times,serif" font-size="14.00">operated by</text>
</g>
<!-- burglar alarm&#45;&gt;burglar alarmoperated by -->
<g id="edge31" class="edge">
<title>burglar alarm&#45;&gt;burglar alarmoperated by</title>
<path fill="none" stroke="black" d="M463.38,-863.7C463.38,-856.21 463.38,-847.26 463.38,-838.88"/>
<polygon fill="black" stroke="black" points="466.88,-839.14 463.38,-829.14 459.88,-839.14 466.88,-839.14"/>
</g>
<!-- burglar alarmsounds -->
<g id="node36" class="node">
<title>burglar alarmsounds</title>
<text xml:space="preserve" text-anchor="middle" x="252.38" y="-732.95" font-family="Times,serif" font-size="14.00">sounds</text>
</g>
<!-- burglar alarm&#45;&gt;burglar alarmsounds -->
<g id="edge21" class="edge">
<title>burglar alarm&#45;&gt;burglar alarmsounds</title>
<path fill="none" stroke="black" d="M417.99,-877C380.59,-871.54 328.22,-858.6 293.38,-828 275.29,-812.12 264.68,-786.62 258.8,-766.98"/>
<polygon fill="black" stroke="black" points="262.19,-766.11 256.19,-757.38 255.43,-767.95 262.19,-766.11"/>
</g>
<!-- fire -->
<g id="node15" class="node">
<title>fire</title>
<path fill="lightblue" stroke="black" d="M64.38,-612C64.38,-612 34.38,-612 34.38,-612 28.38,-612 22.38,-606 22.38,-600 22.38,-600 22.38,-588 22.38,-588 22.38,-582 28.38,-576 34.38,-576 34.38,-576 64.38,-576 64.38,-576 70.38,-576 76.38,-582 76.38,-588 76.38,-588 76.38,-600 76.38,-600 76.38,-606 70.38,-612 64.38,-612"/>
<text xml:space="preserve" text-anchor="middle" x="49.38" y="-588.95" font-family="Times,serif" font-size="14.00">fire</text>
</g>
<!-- firetriggers -->
<g id="node38" class="node">
<title>firetriggers</title>
<text xml:space="preserve" text-anchor="middle" x="49.38" y="-516.95" font-family="Times,serif" font-size="14.00">triggers</text>
</g>
<!-- fire&#45;&gt;firetriggers -->
<g id="edge38" class="edge">
<title>fire&#45;&gt;firetriggers</title>
<path fill="none" stroke="black" d="M49.38,-575.7C49.38,-568.21 49.38,-559.26 49.38,-550.88"/>
<polygon fill="black" stroke="black" points="52.88,-551.14 49.38,-541.14 45.88,-551.14 52.88,-551.14"/>
</g>
<!-- arm button -->
<g id="node16" class="node">
<title>arm button</title>
<path fill="lightblue" stroke="black" d="M547.38,-612C547.38,-612 495.38,-612 495.38,-612 489.38,-612 483.38,-606 483.38,-600 483.38,-600 483.38,-588 483.38,-588 483.38,-582 489.38,-576 495.38,-576 495.38,-576 547.38,-576 547.38,-576 553.38,-576 559.38,-582 559.38,-588 559.38,-588 559.38,-600 559.38,-600 559.38,-606 553.38,-612 547.38,-612"/>
<text xml:space="preserve" text-anchor="middle" x="521.38" y="-588.95" font-family="Times,serif" font-size="14.00">arm button</text>
</g>
<!-- arm buttonturns on -->
<g id="node32" class="node">
<title>arm buttonturns on</title>
<text xml:space="preserve" text-anchor="middle" x="513.38" y="-516.95" font-family="Times,serif" font-size="14.00">turns on</text>
</g>
<!-- arm button&#45;&gt;arm buttonturns on -->
<g id="edge23" class="edge">
<title>arm button&#45;&gt;arm buttonturns on</title>
<path fill="none" stroke="black" d="M519.4,-575.7C518.54,-568.21 517.52,-559.26 516.56,-550.88"/>
<polygon fill="black" stroke="black" points="520.06,-550.66 515.45,-541.13 513.1,-551.46 520.06,-550.66"/>
</g>
<!-- arm buttonarm -->
<g id="node41" class="node">
<title>arm buttonarm</title>
<text xml:space="preserve" text-anchor="middle" x="588.38" y="-516.95" font-family="Times,serif" font-size="14.00">arm</text>
</g>
<!-- arm button&#45;&gt;arm buttonarm -->
<g id="edge25" class="edge">
<title>arm button&#45;&gt;arm buttonarm</title>
<path fill="none" stroke="black" d="M537.94,-575.7C546.01,-567.27 555.86,-556.97 564.7,-547.73"/>
<polygon fill="black" stroke="black" points="567.03,-550.36 571.42,-540.72 561.98,-545.52 567.03,-550.36"/>
</g>
<!-- armed/disarmed indicator -->
<g id="node17" class="node">
<title>armed/disarmed indicator</title>
<path fill="lightblue" stroke="black" d="M521.5,-468C521.5,-468 389.25,-468 389.25,-468 383.25,-468 377.25,-462 377.25,-456 377.25,-456 377.25,-444 377.25,-444 377.25,-438 383.25,-432 389.25,-432 389.25,-432 521.5,-432 521.5,-432 527.5,-432 533.5,-438 533.5,-444 533.5,-444 533.5,-456 533.5,-456 533.5,-462 527.5,-468 521.5,-468"/>
<text xml:space="preserve" text-anchor="middle" x="455.38" y="-444.95" font-family="Times,serif" font-size="14.00">armed/disarmed indicator</text>
</g>
<!-- fire sound -->
<g id="node18" class="node">
<title>fire sound</title>
<path fill="lightblue" stroke="black" d="M113.75,-324C113.75,-324 67,-324 67,-324 61,-324 55,-318 55,-312 55,-312 55,-300 55,-300 55,-294 61,-288 67,-288 67,-288 113.75,-288 113.75,-288 119.75,-288 125.75,-294 125.75,-300 125.75,-300 125.75,-312 125.75,-312 125.75,-318 119.75,-324 113.75,-324"/>
<text xml:space="preserve" text-anchor="middle" x="90.38" y="-300.95" font-family="Times,serif" font-size="14.00">fire sound</text>
</g>
<!-- fire soundsounds for -->
<g id="node34" class="node">
<title>fire soundsounds for</title>
<text xml:space="preserve" text-anchor="middle" x="38.38" y="-228.95" font-family="Times,serif" font-size="14.00">sounds for</text>
</g>
<!-- fire sound&#45;&gt;fire soundsounds for -->
<g id="edge30" class="edge">
<title>fire sound&#45;&gt;fire soundsounds for</title>
<path fill="none" stroke="black" d="M77.52,-287.7C71.45,-279.52 64.08,-269.6 57.38,-260.58"/>
<polygon fill="black" stroke="black" points="60.4,-258.78 51.63,-252.84 54.78,-262.95 60.4,-258.78"/>
</g>
<!-- fire soundoverrides -->
<g id="node39" class="node">
<title>fire soundoverrides</title>
<text xml:space="preserve" text-anchor="middle" x="126.38" y="-228.95" font-family="Times,serif" font-size="14.00">overrides</text>
</g>
<!-- fire sound&#45;&gt;fire soundoverrides -->
<g id="edge18" class="edge">
<title>fire sound&#45;&gt;fire soundoverrides</title>
<path fill="none" stroke="black" d="M99.27,-287.7C103.3,-279.87 108.15,-270.44 112.63,-261.73"/>
<polygon fill="black" stroke="black" points="115.67,-263.46 117.13,-252.97 109.45,-260.26 115.67,-263.46"/>
</g>
<!-- fire sensor -->
<g id="node19" class="node">
<title>fire sensor</title>
<path fill="lightblue" stroke="black" d="M98.88,-468C98.88,-468 49.88,-468 49.88,-468 43.88,-468 37.88,-462 37.88,-456 37.88,-456 37.88,-444 37.88,-444 37.88,-438 43.88,-432 49.88,-432 49.88,-432 98.88,-432 98.88,-432 104.88,-432 110.88,-438 110.88,-444 110.88,-444 110.88,-456 110.88,-456 110.88,-462 104.88,-468 98.88,-468"/>
<text xml:space="preserve" text-anchor="middle" x="74.38" y="-444.95" font-family="Times,serif" font-size="14.00">fire sensor</text>
</g>
<!-- fire sensortriggers -->
<g id="node28" class="node">
<title>fire sensortriggers</title>
<text xml:space="preserve" text-anchor="middle" x="80.38" y="-372.95" font-family="Times,serif" font-size="14.00">triggers</text>
</g>
<!-- fire sensor&#45;&gt;fire sensortriggers -->
<g id="edge14" class="edge">
<title>fire sensor&#45;&gt;fire sensortriggers</title>
<path fill="none" stroke="black" d="M75.86,-431.7C76.5,-424.21 77.27,-415.26 77.99,-406.88"/>
<polygon fill="black" stroke="black" points="81.45,-407.39 78.82,-397.13 74.48,-406.79 81.45,-407.39"/>
</g>
<!-- PINenables&#45;&gt;burglar alarm -->
<g id="edge40" class="edge">
<title>PINenables&#45;&gt;burglar alarm</title>
<path fill="none" stroke="black" d="M483.84,-936.05C480.93,-928.52 477.43,-919.44 474.15,-910.94"/>
<polygon fill="black" stroke="black" points="477.45,-909.76 470.58,-901.69 470.92,-912.28 477.45,-909.76"/>
</g>
<!-- intruder sensortriggers&#45;&gt;intruder sound -->
<g id="edge15" class="edge">
<title>intruder sensortriggers&#45;&gt;intruder sound</title>
<path fill="none" stroke="black" d="M178.56,-288.15C180.24,-264.37 183.32,-220.62 185.36,-191.67"/>
<polygon fill="black" stroke="black" points="188.84,-192 186.05,-181.78 181.86,-191.51 188.84,-192"/>
</g>
<!-- burglar alarmvalidates&#45;&gt;PIN -->
<g id="edge32" class="edge">
<title>burglar alarmvalidates&#45;&gt;PIN</title>
<path fill="none" stroke="black" d="M605.61,-827.94C599.62,-864.53 585.42,-951.34 578.03,-996.54"/>
<polygon fill="black" stroke="black" points="574.58,-995.92 576.42,-1006.36 581.49,-997.05 574.58,-995.92"/>
</g>
<!-- disarm buttondisarm&#45;&gt;burglar alarm -->
<g id="edge45" class="edge">
<title>disarm buttondisarm&#45;&gt;burglar alarm</title>
<path fill="none" stroke="black" d="M313.83,-539.6C311.51,-566.09 307.38,-619.57 307.38,-665 307.38,-739 307.38,-739 307.38,-739 307.38,-795.74 364.51,-835.81 409.63,-858.61"/>
<polygon fill="black" stroke="black" points="408.04,-861.73 418.56,-862.96 411.1,-855.43 408.04,-861.73"/>
</g>
<!-- numeric keypadaccepts&#45;&gt;PIN -->
<g id="edge48" class="edge">
<title>numeric keypadaccepts&#45;&gt;PIN</title>
<path fill="none" stroke="black" d="M602.93,-1080.05C598.59,-1072.26 593.33,-1062.82 588.46,-1054.08"/>
<polygon fill="black" stroke="black" points="591.66,-1052.63 583.74,-1045.6 585.55,-1056.04 591.66,-1052.63"/>
</g>
<!-- burglar alarmmonitors&#45;&gt;zones -->
<g id="edge3" class="edge">
<title>burglar alarmmonitors&#45;&gt;zones</title>
<path fill="none" stroke="black" d="M183.53,-792.05C181.4,-784.6 178.84,-775.64 176.44,-767.22"/>
<polygon fill="black" stroke="black" points="179.84,-766.38 173.73,-757.73 173.11,-768.31 179.84,-766.38"/>
</g>
<!-- userenters&#45;&gt;PIN -->
<g id="edge47" class="edge">
<title>userenters&#45;&gt;PIN</title>
<path fill="none" stroke="black" d="M547.61,-1080.05C551.35,-1072.35 555.88,-1063.03 560.08,-1054.36"/>
<polygon fill="black" stroke="black" points="563.1,-1056.16 564.32,-1045.64 556.81,-1053.1 563.1,-1056.16"/>
</g>
<!-- intruder soundsounds for&#45;&gt;15 minutes -->
<g id="edge11" class="edge">
<title>intruder soundsounds for&#45;&gt;15 minutes</title>
<path fill="none" stroke="black" d="M187.38,-72.05C187.38,-64.68 187.38,-55.84 187.38,-47.51"/>
<polygon fill="black" stroke="black" points="190.88,-47.79 187.38,-37.79 183.88,-47.79 190.88,-47.79"/>
</g>
<!-- fire sensortriggers&#45;&gt;fire sound -->
<g id="edge41" class="edge">
<title>fire sensortriggers&#45;&gt;fire sound</title>
<path fill="none" stroke="black" d="M82.8,-360.05C83.85,-352.68 85.11,-343.84 86.3,-335.51"/>
<polygon fill="black" stroke="black" points="89.74,-336.17 87.69,-325.77 82.81,-335.18 89.74,-336.17"/>
</g>
<!-- sensorsof type&#45;&gt;intruder sensor -->
<g id="edge6" class="edge">
<title>sensorsof type&#45;&gt;intruder sensor</title>
<path fill="none" stroke="black" d="M136.45,-504.05C142.66,-496.01 150.22,-486.2 157.14,-477.23"/>
<polygon fill="black" stroke="black" points="159.79,-479.53 163.12,-469.47 154.24,-475.25 159.79,-479.53"/>
</g>
<!-- sensorsof type&#45;&gt;fire sensor -->
<g id="edge22" class="edge">
<title>sensorsof type&#45;&gt;fire sensor</title>
<path fill="none" stroke="black" d="M111.51,-504.05C105.94,-496.09 99.16,-486.41 92.93,-477.51"/>
<polygon fill="black" stroke="black" points="95.94,-475.7 87.34,-469.52 90.2,-479.71 95.94,-475.7"/>
</g>
<!-- disarm buttonturns off&#45;&gt;armed/disarmed indicator -->
<g id="edge9" class="edge">
<title>disarm buttonturns off&#45;&gt;armed/disarmed indicator</title>
<path fill="none" stroke="black" d="M409.14,-504.05C416.23,-495.92 424.88,-486 432.77,-476.94"/>
<polygon fill="black" stroke="black" points="435.4,-479.25 439.33,-469.42 430.12,-474.66 435.4,-479.25"/>
</g>
<!-- sirenhas&#45;&gt;intruder sound -->
<g id="edge46" class="edge">
<title>sirenhas&#45;&gt;intruder sound</title>
<path fill="none" stroke="black" d="M230.85,-360.26C227.08,-342.36 220.88,-313.16 215.38,-288 208.11,-254.8 199.55,-216.7 193.82,-191.38"/>
<polygon fill="black" stroke="black" points="197.28,-190.83 191.66,-181.85 190.46,-192.38 197.28,-190.83"/>
</g>
<!-- sirenhas&#45;&gt;fire sound -->
<g id="edge4" class="edge">
<title>sirenhas&#45;&gt;fire sound</title>
<path fill="none" stroke="black" d="M207.63,-364C187.65,-354.29 159.85,-340.77 136.33,-329.34"/>
<polygon fill="black" stroke="black" points="138.1,-326.31 127.58,-325.08 135.04,-332.6 138.1,-326.31"/>
</g>
<!-- arm buttonturns on&#45;&gt;armed/disarmed indicator -->
<g id="edge42" class="edge">
<title>arm buttonturns on&#45;&gt;armed/disarmed indicator</title>
<path fill="none" stroke="black" d="M499.33,-504.05C492.6,-495.92 484.37,-486 476.87,-476.94"/>
<polygon fill="black" stroke="black" points="479.73,-474.91 470.65,-469.44 474.34,-479.37 479.73,-474.91"/>
</g>
<!-- burglar alarmoperated by&#45;&gt;control panel -->
<g id="edge7" class="edge">
<title>burglar alarmoperated by&#45;&gt;control panel</title>
<path fill="none" stroke="black" d="M463.38,-792.05C463.38,-784.68 463.38,-775.84 463.38,-767.51"/>
<polygon fill="black" stroke="black" points="466.88,-767.79 463.38,-757.79 459.88,-767.79 466.88,-767.79"/>
</g>
<!-- fire soundsounds for&#45;&gt;30 minutes -->
<g id="edge34" class="edge">
<title>fire soundsounds for&#45;&gt;30 minutes</title>
<path fill="none" stroke="black" d="M38.38,-216.05C38.38,-208.68 38.38,-199.84 38.38,-191.51"/>
<polygon fill="black" stroke="black" points="41.88,-191.79 38.38,-181.79 34.88,-191.79 41.88,-191.79"/>
</g>
<!-- zonescontain&#45;&gt;sensors -->
<g id="edge37" class="edge">
<title>zonescontain&#45;&gt;sensors</title>
<path fill="none" stroke="black" d="M139.81,-648.05C137.33,-640.52 134.35,-631.44 131.55,-622.94"/>
<polygon fill="black" stroke="black" points="134.97,-622.12 128.52,-613.71 128.32,-624.31 134.97,-622.12"/>
</g>
<!-- burglar alarmsounds&#45;&gt;siren -->
<g id="edge43" class="edge">
<title>burglar alarmsounds&#45;&gt;siren</title>
<path fill="none" stroke="black" d="M252.38,-720.05C252.38,-712.68 252.38,-703.84 252.38,-695.51"/>
<polygon fill="black" stroke="black" points="255.88,-695.79 252.38,-685.79 248.88,-695.79 255.88,-695.79"/>
</g>
<!-- control panelhas&#45;&gt;numeric keypad -->
<g id="edge8" class="edge">
<title>control panelhas&#45;&gt;numeric keypad</title>
<path fill="none" stroke="black" d="M490.18,-672.36C545.74,-685.21 668.38,-723.28 668.38,-809 668.38,-1027 668.38,-1027 668.38,-1027 668.38,-1066.51 662.18,-1111.81 657.5,-1140.41"/>
<polygon fill="black" stroke="black" points="654.08,-1139.65 655.87,-1150.09 660.99,-1140.81 654.08,-1139.65"/>
</g>
<!-- control panelhas&#45;&gt;disarm button -->
<g id="edge28" class="edge">
<title>control panelhas&#45;&gt;disarm button</title>
<path fill="none" stroke="black" d="M443.53,-648.05C433.5,-639.5 421.16,-628.96 410.12,-619.54"/>
<polygon fill="black" stroke="black" points="412.64,-617.09 402.76,-613.26 408.1,-622.41 412.64,-617.09"/>
</g>
<!-- control panelhas&#45;&gt;arm button -->
<g id="edge49" class="edge">
<title>control panelhas&#45;&gt;arm button</title>
<path fill="none" stroke="black" d="M477.42,-648.05C484.15,-639.92 492.38,-630 499.88,-620.94"/>
<polygon fill="black" stroke="black" points="502.41,-623.37 506.1,-613.44 497.02,-618.91 502.41,-623.37"/>
</g>
<!-- control panelhas&#45;&gt;armed/disarmed indicator -->
<g id="edge16" class="edge">
<title>control panelhas&#45;&gt;armed/disarmed indicator</title>
<path fill="none" stroke="black" d="M462.75,-648.21C461.38,-611.74 458.14,-524.96 456.45,-479.65"/>
<polygon fill="black" stroke="black" points="459.95,-479.68 456.08,-469.82 452.95,-479.94 459.95,-479.68"/>
</g>
<!-- firetriggers&#45;&gt;fire sensor -->
<g id="edge44" class="edge">
<title>firetriggers&#45;&gt;fire sensor</title>
<path fill="none" stroke="black" d="M55.43,-504.05C58.12,-496.52 61.36,-487.44 64.4,-478.94"/>
<polygon fill="black" stroke="black" points="67.63,-480.3 67.7,-469.7 61.04,-477.94 67.63,-480.3"/>
</g>
<!-- fire soundoverrides&#45;&gt;intruder sound -->
<g id="edge29" class="edge">
<title>fire soundoverrides&#45;&gt;intruder sound</title>
<path fill="none" stroke="black" d="M141.14,-216.05C148.23,-207.92 156.88,-198 164.77,-188.94"/>
<polygon fill="black" stroke="black" points="167.4,-191.25 171.33,-181.42 162.12,-186.66 167.4,-191.25"/>
</g>
<!-- intrudertriggers&#45;&gt;intruder sensor -->
<g id="edge35" class="edge">
<title>intrudertriggers&#45;&gt;intruder sensor</title>
<path fill="none" stroke="black" d="M192.53,-504.05C190.4,-496.6 187.84,-487.64 185.44,-479.22"/>
<polygon fill="black" stroke="black" points="188.84,-478.38 182.73,-469.73 182.11,-480.31 188.84,-478.38"/>
</g>
<!-- arm buttonarm&#45;&gt;burglar alarm -->
<g id="edge10" class="edge">
<title>arm buttonarm&#45;&gt;burglar alarm</title>
<path fill="none" stroke="black" d="M587.16,-539.95C583.11,-587.96 567.05,-727.91 512.38,-828 506.94,-837.96 499.21,-847.5 491.51,-855.68"/>
<polygon fill="black" stroke="black" points="489.2,-853.03 484.64,-862.59 494.17,-857.96 489.2,-853.03"/>
</g>
</g>
</svg>
